<?xml version="1.0" standalone="no"?>
<!DOCTYPE svg PUBLIC "-//W3C//DTD SVG 20010904//EN"
 "http://www.w3.org/TR/2001/REC-SVG-20010904/DTD/svg10.dtd">
<svg version="1.0" xmlns="http://www.w3.org/2000/svg"
 width="512.000000pt" height="512.000000pt" viewBox="0 0 512.000000 512.000000"
 preserveAspectRatio="xMidYMid meet">
<metadata>
Created by potrace 1.14, written by Peter Selinger 2001-2017
</metadata>
<g transform="translate(0.000000,512.000000) scale(0.100000,-0.100000)"
fill="#000000" stroke="none">
<path d="M3565 5109 c-60 -4 -272 -26 -470 -48 -343 -39 -718 -66 -737 -55 -5
3 -123 6 -261 5 -151 0 -362 7 -527 19 -443 30 -507 32 -659 20 -246 -19 -433
-83 -550 -187 -60 -53 -145 -175 -162 -234 -7 -21 -25 -50 -41 -65 -41 -36
-65 -94 -82 -200 -21 -125 -29 -1144 -15 -1934 5 -338 14 -876 19 -1195 7
-523 10 -589 28 -670 57 -257 172 -385 400 -447 74 -20 103 -21 862 -22 432
-1 829 -6 882 -10 l97 -9 30 31 c26 25 31 38 31 77 0 40 -5 52 -35 82 l-36 36
-404 -7 c-1256 -19 -1204 -19 -1305 -2 -169 30 -278 102 -320 213 -19 52 -20
78 -20 716 1 1425 28 2410 85 3070 13 154 10 192 -15 233 -10 17 -8 28 15 74
63 124 197 213 380 252 147 31 410 28 740 -7 443 -48 1136 -54 1605 -16 617
51 981 25 1285 -91 174 -67 269 -159 329 -319 48 -128 50 -157 47 -729 -1
-319 2 -600 9 -695 15 -215 39 -421 52 -450 14 -31 66 -49 101 -36 47 18 54
44 61 211 12 284 36 702 58 1005 33 450 28 565 -29 750 -69 221 -213 398 -398
489 -254 126 -621 176 -1050 145z"/>
<path d="M1167 4045 c-107 -27 -197 -148 -197 -266 0 -130 117 -240 240 -226
61 7 100 27 148 75 150 150 94 384 -100 420 -29 6 -61 5 -91 -3z"/>
<path d="M3250 3933 c-41 -2 -172 -10 -290 -18 -118 -8 -381 -20 -585 -25
-417 -11 -445 -14 -477 -39 -31 -26 -31 -92 0 -123 21 -22 28 -22 269 -24 246
-2 287 -4 703 -46 293 -29 733 -32 895 -5 117 20 142 33 172 91 14 26 13 31
-4 55 -39 54 -152 92 -343 115 -137 17 -238 23 -340 19z"/>
<path d="M1096 2825 c-200 -71 -191 -407 13 -492 24 -10 60 -14 112 -11 67 3
83 7 120 33 148 104 122 384 -44 461 -60 27 -139 31 -201 9z"/>
<path d="M2615 2675 c-254 -48 -264 -49 -447 -35 -257 19 -266 19 -289 -9 -31
-38 -25 -84 15 -119 36 -31 45 -34 211 -57 55 -8 168 -26 250 -40 362 -62 630
-35 680 71 18 39 10 67 -31 105 -42 38 -106 68 -183 85 -79 16 -114 16 -206
-1z"/>
<path d="M3812 2570 c-44 -27 -72 -76 -72 -126 0 -49 30 -139 69 -210 l30 -52
-81 -7 c-177 -15 -294 -62 -389 -155 -110 -109 -167 -248 -239 -579 -63 -293
-104 -410 -186 -523 -62 -84 -78 -133 -79 -233 0 -121 23 -173 117 -259 116
-108 325 -191 583 -231 61 -10 120 -19 131 -21 16 -3 23 -13 27 -43 12 -90 88
-139 195 -127 82 9 140 48 172 112 l25 52 95 12 c274 35 510 134 624 261 148
165 151 383 6 574 -36 48 -39 61 -73 241 -61 323 -126 519 -219 660 -122 187
-273 272 -486 273 l-93 1 19 28 c34 46 73 154 78 212 9 99 -52 160 -161 160
-42 0 -70 -6 -93 -20z m201 -575 c149 -26 265 -103 320 -212 43 -85 85 -257
132 -539 26 -152 50 -286 55 -298 4 -12 30 -51 57 -87 63 -82 73 -100 73 -140
0 -75 -183 -196 -382 -253 -277 -80 -691 -75 -946 9 -81 27 -195 89 -225 123
-27 30 -38 80 -27 122 5 20 33 74 61 121 89 145 120 239 169 507 59 319 101
437 190 535 81 89 182 123 375 125 39 1 105 -5 148 -13z"/>
<path d="M1123 1531 c-62 -29 -128 -94 -153 -153 -46 -108 -7 -230 95 -293 42
-26 58 -30 119 -30 109 1 193 52 240 147 61 121 6 285 -111 334 -47 20 -140
17 -190 -5z"/>
<path d="M2249 1451 c-91 -47 -149 -57 -251 -40 -76 12 -78 12 -103 -11 -30
-28 -34 -84 -8 -112 9 -10 73 -37 142 -60 117 -39 134 -42 236 -42 102 -1 113
1 157 26 25 16 56 40 68 55 44 56 6 169 -70 208 -47 24 -91 18 -171 -24z"/>
</g>
</svg>
